<?xml version="1.0" encoding="utf-8"?>
<!-- Generator: Adobe Illustrator 16.0.0, SVG Export Plug-In . SVG Version: 6.00 Build 0)  -->
<!DOCTYPE svg PUBLIC "-//W3C//DTD SVG 1.1//EN" "http://www.w3.org/Graphics/SVG/1.1/DTD/svg11.dtd">
<svg version="1.1" id="Layer_1" xmlns="http://www.w3.org/2000/svg" xmlns:xlink="http://www.w3.org/1999/xlink" x="0px" y="0px"
	 width="180px" height="60px" viewBox="0 0 180 60" enable-background="new 0 0 180 60" xml:space="preserve">
<g>
	<path fill="#EB2027" d="M108.329,17.461c4.875,0,8.22,2.485,9.749,5.209v-4.779h4.397V44.08h-4.397v-4.875
		c-1.577,2.82-4.97,5.305-9.797,5.305c-6.978,0-12.378-5.495-12.378-13.62C95.903,22.718,101.304,17.461,108.329,17.461z
		 M109.189,21.236c-4.779,0-8.841,3.489-8.841,9.653c0,6.165,4.062,9.797,8.841,9.797s8.889-3.584,8.889-9.749
		C118.078,24.868,113.969,21.236,109.189,21.236z"/>
	<path fill="#EB2027" d="M139.109,44.51c-6.117,0-10.418-3.345-10.705-8.124h4.492c0.239,2.533,2.485,4.444,6.165,4.444
		c3.441,0,5.353-1.721,5.353-3.871c0-5.83-15.484-2.438-15.484-12.187c0-4.014,3.775-7.312,9.606-7.312
		c5.782,0,9.605,3.106,9.893,8.22h-4.349c-0.191-2.628-2.199-4.54-5.688-4.54c-3.202,0-5.113,1.529-5.113,3.632
		c0,6.213,15.197,2.82,15.389,12.187C148.668,41.261,144.892,44.51,139.109,44.51z"/>
	<path fill="#EB2027" d="M172.852,17.891h4.492l-15.771,38.52h-4.492l5.161-12.617L151.68,17.891h4.827l8.22,21.219L172.852,17.891z
		"/>
</g>
<polyline fill="none" stroke="#EB2027" stroke-width="4" stroke-miterlimit="10" points="2.386,30.43 20.152,30.453 26.737,19.726 
	34.665,40.175 37.624,-1 "/>
<polyline fill="none" stroke="#EB2027" stroke-width="4" stroke-miterlimit="10" points="43.112,-1 48.21,22.891 53.84,14.5 
	57.419,27.409 90.482,27.409 "/>
<polyline fill="none" stroke="#EB2027" stroke-width="4" stroke-miterlimit="10" points="90.482,12.473 74.953,12.473 
	74.953,27.608 "/>
<polyline fill="none" stroke="#EB2027" stroke-width="4" stroke-miterlimit="10" points="90.482,42.487 74.953,42.487 
	74.953,32.451 "/>
<g>
	<path fill-rule="evenodd" clip-rule="evenodd" fill="#EB2027" d="M177.327,8.281c-0.792,0.784-1.538,1.521-2.348,2.324
		c-2.785-2.65-6.096-4.112-9.951-4.123c-3.867-0.01-7.2,1.414-9.984,4.06c-0.771-0.789-1.521-1.554-2.274-2.326
		C158.23,1.939,170.223,0.877,177.327,8.281z"/>
	<path fill-rule="evenodd" clip-rule="evenodd" fill="#EB2027" d="M159.265,14.871c-0.882-0.886-1.703-1.713-2.526-2.539
		c3.627-4.207,11.676-5.066,16.617-0.045c-0.885,0.834-1.771,1.669-2.669,2.514C166.353,11.786,163.637,11.786,159.265,14.871z"/>
	<circle fill-rule="evenodd" clip-rule="evenodd" fill="#EB2027" cx="165.047" cy="17.377" r="2.33"/>
</g>
<g>
	<path fill="#EB2027" d="M6.349,48.306c1.68,0,3.015,0.846,3.593,2.348H8.73c-0.423-0.935-1.246-1.458-2.381-1.458
		c-1.624,0-2.836,1.18-2.836,3.082c0,1.891,1.212,3.069,2.836,3.069c1.135,0,1.958-0.522,2.381-1.445h1.212
		c-0.579,1.49-1.914,2.324-3.593,2.324c-2.169,0-3.871-1.624-3.871-3.948C2.479,49.952,4.18,48.306,6.349,48.306z"/>
	<path fill="#EB2027" d="M15.179,56.237c-2.18,0-3.893-1.636-3.893-3.96c0-2.325,1.713-3.96,3.893-3.96
		c2.191,0,3.893,1.635,3.893,3.96C19.072,54.602,17.371,56.237,15.179,56.237z M15.179,55.358c1.635,0,2.859-1.19,2.859-3.081
		c0-1.902-1.224-3.082-2.859-3.082s-2.859,1.18-2.859,3.082C12.32,54.168,13.544,55.358,15.179,55.358z"/>
	<path fill="#EB2027" d="M20.627,48.462h1.09l2.848,6.362l2.848-6.362h1.079v7.697h-1.013v-5.74l-2.558,5.74h-0.712l-2.57-5.751
		v5.751h-1.012V48.462z"/>
	<path fill="#EB2027" d="M30.425,48.462h1.09l2.848,6.362l2.848-6.362h1.079v7.697h-1.012v-5.74l-2.558,5.74h-0.712l-2.57-5.751
		v5.751h-1.012V48.462z"/>
	<path fill="#EB2027" d="M40.2,48.406h1.012v4.905c0,1.424,0.768,2.035,1.913,2.035c1.146,0,1.902-0.611,1.902-2.035v-4.905h1.012
		v4.895c0,2.013-1.324,2.937-2.926,2.937c-1.602,0-2.914-0.924-2.914-2.937V48.406z"/>
	<path fill="#EB2027" d="M54.047,48.395v7.765h-1.012l-4.071-6.174v6.174h-1.012v-7.765h1.012l4.071,6.163v-6.163H54.047z"/>
	<path fill="#EB2027" d="M55.991,48.406h1.012v7.753h-1.012V48.406z"/>
	<path fill="#EB2027" d="M62.442,48.306c1.68,0,3.015,0.846,3.593,2.348h-1.212c-0.423-0.935-1.246-1.458-2.381-1.458
		c-1.624,0-2.836,1.18-2.836,3.082c0,1.891,1.212,3.069,2.836,3.069c1.135,0,1.958-0.522,2.381-1.445h1.212
		c-0.579,1.49-1.914,2.324-3.593,2.324c-2.169,0-3.871-1.624-3.871-3.948C58.571,49.952,60.273,48.306,62.442,48.306z"/>
	<path fill="#EB2027" d="M72.34,54.435h-3.381l-0.623,1.725h-1.068l2.803-7.709h1.168l2.792,7.709h-1.068L72.34,54.435z
		 M70.649,49.696l-1.401,3.916h2.803L70.649,49.696z"/>
	<path fill="#EB2027" d="M74.997,48.406h5.25v0.823h-2.113v6.93h-1.012v-6.93h-2.125V48.406z"/>
	<path fill="#EB2027" d="M81.713,48.406h1.012v7.753h-1.012V48.406z"/>
	<path fill="#EB2027" d="M88.187,56.237c-2.18,0-3.893-1.636-3.893-3.96c0-2.325,1.713-3.96,3.893-3.96
		c2.191,0,3.894,1.635,3.894,3.96C92.08,54.602,90.378,56.237,88.187,56.237z M88.187,55.358c1.635,0,2.858-1.19,2.858-3.081
		c0-1.902-1.223-3.082-2.858-3.082s-2.859,1.18-2.859,3.082C85.328,54.168,86.551,55.358,88.187,55.358z"/>
	<path fill="#EB2027" d="M99.73,48.395v7.765h-1.012l-4.071-6.174v6.174h-1.013v-7.765h1.013l4.071,6.163v-6.163H99.73z"/>
	<path fill="#EB2027" d="M104.866,48.406h4.383v0.823h-3.37v2.613h2.736v0.823h-2.736v3.493h-1.013V48.406z"/>
	<path fill="#EB2027" d="M114.209,56.237c-2.181,0-3.894-1.636-3.894-3.96c0-2.325,1.713-3.96,3.894-3.96
		c2.19,0,3.893,1.635,3.893,3.96C118.102,54.602,116.399,56.237,114.209,56.237z M114.209,55.358c1.635,0,2.858-1.19,2.858-3.081
		c0-1.902-1.224-3.082-2.858-3.082c-1.636,0-2.859,1.18-2.859,3.082C111.35,54.168,112.573,55.358,114.209,55.358z"/>
	<path fill="#EB2027" d="M122.16,48.406c1.824,0,2.692,1.012,2.692,2.28c0,0.99-0.546,1.936-1.847,2.225l1.946,3.248h-1.213
		l-1.846-3.17h-1.224v3.17h-1.013v-7.753H122.16z M122.16,49.24h-1.49v2.937h1.49c1.146,0,1.646-0.623,1.646-1.49
		C123.807,49.808,123.317,49.24,122.16,49.24z"/>
	<path fill="#EB2027" d="M130.845,48.406v6.93h2.714v0.823h-3.727v-7.753H130.845z"/>
	<path fill="#EB2027" d="M134.859,48.406h1.013v7.753h-1.013V48.406z"/>
	<path fill="#EB2027" d="M137.817,48.406h4.383v0.823h-3.37v2.613h2.736v0.823h-2.736v3.493h-1.013V48.406z"/>
	<path fill="#EB2027" d="M147.816,49.229h-3.159v2.592h2.825v0.834h-2.825v2.67h3.159v0.834h-4.172v-7.765h4.172V49.229z"/>
</g>
<text transform="matrix(1 0 0 1 765.666 27.4292)" fill="#EB2027" font-family="'Poppins-Regular'" font-size="227.7831">asy</text>
<polyline fill="none" stroke="#EB2027" stroke-width="20" stroke-miterlimit="10" points="329.777,-37.629 414.447,-37.517 
	445.83,-88.64 483.611,8.814 497.715,-182.651 "/>
<polyline fill="none" stroke="#EB2027" stroke-width="20" stroke-miterlimit="10" points="523.873,-182.651 548.17,-73.556 
	574.998,-113.545 592.053,-52.023 749.631,-52.023 "/>
<polyline fill="none" stroke="#EB2027" stroke-width="20" stroke-miterlimit="10" points="749.631,-123.206 675.616,-123.206 
	675.616,-51.074 "/>
<polyline fill="none" stroke="#EB2027" stroke-width="20" stroke-miterlimit="10" points="749.631,19.836 675.616,19.836 
	675.616,-28 "/>
<g>
	<path fill-rule="evenodd" clip-rule="evenodd" fill="#EB2027" d="M1163.518-143.186c-3.775,3.736-7.324,7.248-11.191,11.077
		c-13.262-12.632-29.049-19.599-47.426-19.649c-18.432-0.05-34.309,6.737-47.578,19.347c-3.674-3.758-7.246-7.405-10.848-11.085
		C1072.502-173.413,1129.658-178.469,1163.518-143.186z"/>
	<path fill-rule="evenodd" clip-rule="evenodd" fill="#EB2027" d="M1077.438-111.777c-4.199-4.224-8.121-8.166-12.043-12.104
		c17.281-20.045,55.645-24.143,79.201-0.217c-4.221,3.977-8.449,7.956-12.725,11.985
		C1111.215-126.482,1098.273-126.482,1077.438-111.777z"/>
	<circle fill-rule="evenodd" clip-rule="evenodd" fill="#EB2027" cx="1104.995" cy="-99.839" r="11.104"/>
</g>
<text transform="matrix(1 0 0 1 327.9297 85)" fill="#EB2027" font-family="'Poppins-Regular'" font-size="53" letter-spacing="1">Communication For Life</text>
</svg>
