<svg width="513" height="512" viewBox="0 0 513 512" fill="none" xmlns="http://www.w3.org/2000/svg">
<path fill-rule="evenodd" clip-rule="evenodd" d="M256.513 512C397.898 512 512.513 397.385 512.513 256C512.513 114.615 397.898 0 256.513 0C115.128 0 0.512939 114.615 0.512939 256C0.512939 397.385 115.128 512 256.513 512ZM348.57 303.136C353.865 290.809 356.513 277.875 356.513 264.334C356.513 248.535 353.019 233.648 346.031 219.672C339.043 205.697 329.213 193.978 316.539 184.516C312.893 181.738 308.77 180.653 304.169 181.261C299.568 181.868 295.923 184.039 293.232 187.771C290.454 191.417 289.391 195.519 290.042 200.076C290.693 204.633 292.841 208.301 296.487 211.078C304.994 217.502 311.569 225.358 316.214 234.646C320.858 243.934 323.18 253.83 323.18 264.334C323.18 273.361 321.422 281.977 317.906 290.18C314.391 298.383 309.638 305.479 303.648 311.469C297.659 317.459 290.562 322.211 282.359 325.727C274.156 329.242 265.541 331 256.513 331C247.485 331 238.87 329.242 230.667 325.727C222.464 322.211 215.367 317.459 209.378 311.469C203.388 305.479 198.635 298.383 195.12 290.18C191.604 281.977 189.846 273.361 189.846 264.334C189.846 253.83 192.168 243.934 196.812 234.646C201.457 225.358 208.032 217.502 216.539 211.078C220.185 208.301 222.333 204.633 222.984 200.076C223.635 195.519 222.572 191.417 219.794 187.771C217.103 184.039 213.479 181.868 208.922 181.261C204.365 180.653 200.219 181.738 196.487 184.516C183.813 193.978 173.983 205.697 166.995 219.672C160.007 233.648 156.513 248.535 156.513 264.334C156.513 277.875 159.161 290.809 164.456 303.136C169.751 315.462 176.869 326.096 185.81 335.037C194.751 343.978 205.385 351.096 217.711 356.391C230.037 361.686 242.971 364.334 256.513 364.334C270.055 364.334 282.989 361.686 295.315 356.391C307.641 351.096 318.275 343.978 327.216 335.037C336.157 326.096 343.275 315.462 348.57 303.136ZM273.18 247.667V164.334C273.18 159.82 271.53 155.914 268.232 152.615C264.933 149.316 261.027 147.667 256.513 147.667C251.999 147.667 248.093 149.316 244.794 152.615C241.496 155.914 239.846 159.82 239.846 164.334V247.667C239.846 252.181 241.496 256.087 244.794 259.386C248.093 262.684 251.999 264.334 256.513 264.334C261.027 264.334 264.933 262.684 268.232 259.386C271.53 256.087 273.18 252.181 273.18 247.667Z" fill="#4A4949"/>
</svg>
